<svg width="25" height="24" viewBox="0 0 25 24" fill="none" xmlns="http://www.w3.org/2000/svg">
<path d="M12.1504 1.5C9.96316 1.50258 7.86623 2.3726 6.31962 3.91922C4.773 5.46584 3.90298 7.56276 3.9004 9.75C3.89778 11.5374 4.48163 13.2763 5.5624 14.7C5.5624 14.7 5.7874 14.9963 5.82415 15.039L12.1504 22.5L18.4796 15.0353C18.5126 14.9955 18.7384 14.7 18.7384 14.7L18.7391 14.6978C19.8194 13.2747 20.403 11.5366 20.4004 9.75C20.3978 7.56276 19.5278 5.46584 17.9812 3.91922C16.4346 2.3726 14.3376 1.50258 12.1504 1.5ZM12.1504 12.75C11.5571 12.75 10.977 12.5741 10.4837 12.2444C9.99034 11.9148 9.60582 11.4462 9.37876 10.8981C9.1517 10.3499 9.09229 9.74667 9.20804 9.16473C9.3238 8.58279 9.60952 8.04824 10.0291 7.62868C10.4486 7.20912 10.9832 6.9234 11.5651 6.80764C12.1471 6.69189 12.7503 6.7513 13.2984 6.97836C13.8466 7.20542 14.3152 7.58994 14.6448 8.08329C14.9745 8.57664 15.1504 9.15666 15.1504 9.75C15.1494 10.5453 14.833 11.3078 14.2706 11.8702C13.7082 12.4326 12.9457 12.749 12.1504 12.75Z" fill="white"/>
</svg>
