<svg fill="#174B9F" version="1.1" id="Layer_1" xmlns="http://www.w3.org/2000/svg" xmlns:xlink="http://www.w3.org/1999/xlink" viewBox="-138.24 -138.24 788.48 788.48" xml:space="preserve" width="64px" height="64px" stroke="#174B9F" stroke-width="0.00512"><g id="SVGRepo_bgCarrier" stroke-width="0"><rect x="-138.24" y="-138.24" width="788.48" height="788.48" rx="0" fill="#E8EDF5" strokewidth="0"></rect></g><g id="SVGRepo_tracerCarrier" stroke-linecap="round" stroke-linejoin="round" stroke="#CCCCCC" stroke-width="1.024"></g><g id="SVGRepo_iconCarrier"> <g> <g> <path d="M418.151,124.741v15.642h78.208v102.191H389.996V195.65h-12.62c14.08-23.147,30.949-54.499,30.949-71.83 c0-30.685-24.964-55.648-55.648-55.648c-30.685,0-55.648,24.964-55.648,55.648c0,28.044,44.177,92.809,49.214,100.101l6.435,9.316 l6.435-9.316c1.698-2.458,7.843-11.449,15.243-23.356v57.652h122.004v15.642H344.114v154.33H327.43v-154.33H185.613v96.978h54.224 v57.352h-16.684v-40.668H15.642v-8.342h10.428v-15.642H15.642v-7.299h127.218V211.291H15.642v-7.299h127.218v-63.609h11.47v86.55 h164.758V195.65h-15.642v15.642H169.971v-70.908h117.833v-15.642H0v319.088h512V124.741H418.151z M369.875,177.544 c-6.307,10.877-12.668,20.9-17.198,27.84c-4.516-6.918-10.851-16.899-17.148-27.755c-19.889-34.284-22.858-48.428-22.858-53.809 c0-22.06,17.947-40.007,40.007-40.007c22.06,0,40.007,17.947,40.007,40.007C392.684,129.192,389.721,143.317,369.875,177.544z M15.642,140.383h111.576v47.967H15.642V140.383z M15.642,226.933h111.576v113.662H15.642V226.933z M207.511,428.187H15.642 v-25.026h191.87V428.187z M311.788,428.187h-56.31v-72.994h-54.224v-65.694h110.534V428.187z M496.358,428.187H359.756V289.499 h136.603V428.187z"></path> </g> </g> <g> <g> <polygon points="359.756,115.356 359.756,99.715 344.114,99.715 344.114,115.356 328.473,115.356 328.473,130.998 344.114,130.998 344.114,146.64 359.756,146.64 359.756,130.998 374.354,130.998 374.354,115.356 "></polygon> </g> </g> <g> <g> <rect x="344.114" y="164.361" width="15.642" height="15.642"></rect> </g> </g> <g> <g> <rect x="344.114" y="242.569" width="15.642" height="15.642"></rect> </g> </g> <g> <g> <rect x="320.13" y="242.569" width="15.642" height="15.642"></rect> </g> </g> <g> <g> <rect x="297.189" y="242.569" width="14.599" height="15.642"></rect> </g> </g> <g> <g> <rect x="272.163" y="242.569" width="15.642" height="15.642"></rect> </g> </g> <g> <g> <rect x="248.179" y="242.569" width="17.727" height="15.642"></rect> </g> </g> <g> <g> <rect x="224.196" y="242.569" width="16.684" height="15.642"></rect> </g> </g> <g> <g> <rect x="201.255" y="242.569" width="15.642" height="15.642"></rect> </g> </g> <g> <g> <rect x="177.271" y="242.569" width="16.684" height="15.642"></rect> </g> </g> <g> <g> <rect x="153.287" y="242.569" width="16.684" height="15.642"></rect> </g> </g> <g> <g> <rect x="153.287" y="266.553" width="16.684" height="15.642"></rect> </g> </g> <g> <g> <rect x="153.287" y="291.579" width="16.684" height="15.642"></rect> </g> </g> <g> <g> <rect x="153.287" y="316.606" width="16.684" height="15.642"></rect> </g> </g> <g> <g> <rect x="153.287" y="340.589" width="16.684" height="15.642"></rect> </g> </g> <g> <g> <rect x="153.287" y="363.53" width="16.684" height="15.642"></rect> </g> </g> <g> <g> <rect x="127.218" y="363.53" width="18.77" height="15.642"></rect> </g> </g> <g> <g> <rect x="104.277" y="363.53" width="17.727" height="15.642"></rect> </g> </g> <g> <g> <rect x="80.293" y="363.53" width="15.642" height="15.642"></rect> </g> </g> <g> <g> <rect x="57.352" y="363.53" width="14.599" height="15.642"></rect> </g> </g> <g> <g> <rect x="33.369" y="363.53" width="14.599" height="15.642"></rect> </g> </g> </g></svg>