<svg width="25" height="24" viewBox="0 0 25 24" fill="none" xmlns="http://www.w3.org/2000/svg">
<path d="M20.1504 10.999H22.1504C22.1504 5.869 18.2774 2 13.1404 2V4C17.2024 4 20.1504 6.943 20.1504 10.999Z" fill="white"/>
<path d="M13.1504 8.00024C15.2534 8.00024 16.1504 8.89724 16.1504 11.0002H18.1504C18.1504 7.77524 16.3754 6.00024 13.1504 6.00024V8.00024ZM16.5724 13.4432C16.3803 13.2686 16.1278 13.1754 15.8682 13.1835C15.6087 13.1915 15.3624 13.3001 15.1814 13.4862L12.7884 15.9472C12.2124 15.8372 11.0544 15.4762 9.86243 14.2872C8.67043 13.0942 8.30943 11.9332 8.20243 11.3612L10.6614 8.96724C10.8478 8.78637 10.9566 8.54006 10.9646 8.28045C10.9726 8.02083 10.8793 7.76828 10.7044 7.57624L7.00943 3.51324C6.83447 3.3206 6.59131 3.20374 6.33158 3.1875C6.07186 3.17125 5.81603 3.2569 5.61843 3.42624L3.44843 5.28724C3.27554 5.46075 3.17235 5.69169 3.15843 5.93624C3.14343 6.18624 2.85743 12.1082 7.44943 16.7022C11.4554 20.7072 16.4734 21.0002 17.8554 21.0002C18.0574 21.0002 18.1814 20.9942 18.2144 20.9922C18.4589 20.9786 18.6898 20.8749 18.8624 20.7012L20.7224 18.5302C20.8919 18.3328 20.9777 18.077 20.9617 17.8173C20.9456 17.5576 20.8289 17.3143 20.6364 17.1392L16.5724 13.4432Z" fill="white"/>
</svg>
