<svg width="41" height="40" viewBox="0 0 41 40" fill="none" xmlns="http://www.w3.org/2000/svg">
<rect x="0.5" width="40" height="40" rx="20" fill="#E8EDF5"/>
<path d="M30.47 26.33C30.47 26.69 30.39 27.06 30.22 27.42C30.05 27.78 29.83 28.12 29.54 28.44C29.05 28.98 28.51 29.37 27.9 29.62C27.3 29.87 26.65 30 25.95 30C24.93 30 23.84 29.76 22.69 29.27C21.54 28.78 20.39 28.12 19.25 27.29C18.1 26.45 17.01 25.52 15.97 24.49C14.94 23.45 14.01 22.36 13.18 21.22C12.36 20.08 11.7 18.94 11.22 17.81C10.74 16.67 10.5 15.58 10.5 14.54C10.5 13.86 10.62 13.21 10.86 12.61C11.1 12 11.48 11.44 12.01 10.94C12.65 10.31 13.35 10 14.09 10C14.37 10 14.65 10.06 14.9 10.18C15.16 10.3 15.39 10.48 15.57 10.74L17.89 14.01C18.07 14.26 18.2 14.49 18.29 14.71C18.38 14.92 18.43 15.13 18.43 15.32C18.43 15.56 18.36 15.8 18.22 16.03C18.09 16.26 17.9 16.5 17.66 16.74L16.9 17.53C16.79 17.64 16.74 17.77 16.74 17.93C16.74 18.01 16.75 18.08 16.77 18.16C16.8 18.24 16.83 18.3 16.85 18.36C17.03 18.69 17.34 19.12 17.78 19.64C18.23 20.16 18.71 20.69 19.23 21.22C19.77 21.75 20.29 22.24 20.82 22.69C21.34 23.13 21.77 23.43 22.11 23.61C22.16 23.63 22.22 23.66 22.29 23.69C22.37 23.72 22.45 23.73 22.54 23.73C22.71 23.73 22.84 23.67 22.95 23.56L23.71 22.81C23.96 22.56 24.2 22.37 24.43 22.25C24.66 22.11 24.89 22.04 25.14 22.04C25.33 22.04 25.53 22.08 25.75 22.17C25.97 22.26 26.2 22.39 26.45 22.56L29.76 24.91C30.02 25.09 30.2 25.3 30.31 25.55C30.41 25.8 30.47 26.05 30.47 26.33Z" stroke="#174B9F" stroke-width="1.5" stroke-miterlimit="10"/>
</svg>
